<svg version="1.1" xmlns="http://www.w3.org/2000/svg" xmlns:xlink="http://www.w3.org/1999/xlink" width="20" height="20" viewBox="0 0 20 20">
<g id="StreamGraph">
<path id="Фігура-19" d="M16.312,14.344 C15.062,13.656 13.687,13.781 13.000,13.969 C11.803,14.295 11.000,14.953 11.000,14.953 C11.000,14.953 6.176,19.677 3.000,14.969 C1.916,13.362 1.000,12.969 1.000,12.969 L1.000,8.969 L4.000,8.969 L4.000,7.969 L10.000,8.000 L10.000,8.969 L12.000,8.969 L12.000,9.969 L19.000,9.969 L19.000,16.969 C19.000,16.969 17.562,15.031 16.312,14.344 z" fill="#70A593" />
<path id="Фігура-20" d="M13.000,8.969 L13.000,7.969 L11.000,7.969 L11.000,6.969 L2.969,6.969 L2.969,7.969 L1.000,7.969 L1.000,6.000 C1.000,6.000 2.437,5.125 4.500,3.875 C6.562,2.625 9.969,4.000 9.969,4.000 L15.000,6.000 L19.000,6.000 L19.000,8.969 L13.000,8.969 z" fill="#8BAED1" />
</g>
</svg>
